<svg width="14" height="16" viewBox="0 0 14 16" fill="none" xmlns="http://www.w3.org/2000/svg">
<path fill-rule="evenodd" clip-rule="evenodd" d="M1.94011 0.124756C1.49292 0.124756 1.06402 0.302787 0.747611 0.619193C0.431486 0.935318 0.253174 1.36647 0.253174 1.81394V14.1875C0.253174 14.635 0.431486 15.0662 0.747611 15.3823C1.06402 15.6987 1.49292 15.8767 1.94011 15.8767H12.0662C12.5137 15.8767 12.9449 15.6987 13.261 15.3823C13.5774 15.0662 13.7532 14.635 13.7532 14.1875V1.81394C13.7532 1.36647 13.5774 0.935318 13.261 0.619193C12.9449 0.302787 12.5137 0.124756 12.0662 0.124756H1.94011V0.124756ZM1.94011 1.25088H12.0662C12.2164 1.25088 12.3587 1.30994 12.4645 1.41569C12.57 1.52116 12.6293 1.66347 12.6293 1.81394V14.1875C12.6293 14.338 12.57 14.4803 12.4645 14.5858C12.359 14.6915 12.2164 14.7506 12.0662 14.7506H1.94011C1.78992 14.7506 1.64986 14.6915 1.54411 14.5858C1.43864 14.4803 1.3793 14.338 1.3793 14.1875V1.81394C1.3793 1.66347 1.43864 1.52116 1.54411 1.41569C1.64986 1.30994 1.78992 1.25088 1.94011 1.25088V1.25088Z" fill="#36393E"/>
<path fill-rule="evenodd" clip-rule="evenodd" d="M5.03474 4.06397C4.72677 4.06368 4.4728 4.31653 4.47168 4.62478V4.62506C4.47168 4.93387 4.72565 5.18784 5.03418 5.18784H8.97224C9.28077 5.18784 9.53474 4.93387 9.53474 4.62506V4.62478C9.5339 4.31653 9.27993 4.06368 8.97168 4.06397H5.03474Z" fill="#36393E"/>
<path fill-rule="evenodd" clip-rule="evenodd" d="M5.03474 7.4375C5.03474 7.4375 5.03446 7.4375 5.03418 7.4375C4.72565 7.4375 4.47168 7.69147 4.47168 8V8.00113C4.47168 8.30994 4.72565 8.56363 5.03418 8.56363H8.97224C9.28077 8.56363 9.53474 8.30994 9.53474 8.00113V8C9.53474 7.69147 9.28077 7.4375 8.97224 7.4375C8.97196 7.4375 8.97196 7.4375 8.97168 7.4375H5.03474Z" fill="#36393E"/>
<path fill-rule="evenodd" clip-rule="evenodd" d="M5.03474 10.8136C5.03474 10.8136 5.03446 10.8136 5.03418 10.8136C4.72565 10.8136 4.47168 11.0676 4.47168 11.3761V11.3767C4.4728 11.6849 4.72677 11.9378 5.03474 11.9375H8.97168C9.27993 11.9378 9.5339 11.6849 9.53474 11.3767C9.53474 11.3767 9.53474 11.3764 9.53474 11.3761C9.53474 11.0676 9.28077 10.8136 8.97224 10.8136C8.97196 10.8136 8.97196 10.8136 8.97168 10.8136H5.03474Z" fill="#36393E"/>
</svg>
