<svg width="15" height="16" viewBox="0 0 15 16" fill="none" xmlns="http://www.w3.org/2000/svg">
<path fill-rule="evenodd" clip-rule="evenodd" d="M2.12474 0.124756C1.65171 0.124756 1.19802 0.302787 0.863337 0.619193C0.528947 0.935318 0.340332 1.36647 0.340332 1.81394V14.1875C0.340332 14.635 0.528947 15.0662 0.863337 15.3823C1.19802 15.6987 1.65171 15.8767 2.12474 15.8767H12.8359C13.3092 15.8767 13.7653 15.6987 14.0997 15.3823C14.4344 15.0662 14.6203 14.635 14.6203 14.1875V1.81394C14.6203 1.36647 14.4344 0.935318 14.0997 0.619193C13.7653 0.302787 13.3092 0.124756 12.8359 0.124756H2.12474V0.124756ZM2.12474 1.25088H12.8359C12.9948 1.25088 13.1453 1.30994 13.2572 1.41569C13.3687 1.52116 13.4315 1.66347 13.4315 1.81394V14.1875C13.4315 14.338 13.3687 14.4803 13.2572 14.5858C13.1456 14.6915 12.9948 14.7506 12.8359 14.7506H2.12474C1.96587 14.7506 1.81772 14.6915 1.70586 14.5858C1.59429 14.4803 1.53152 14.338 1.53152 14.1875V1.81394C1.53152 1.66347 1.59429 1.52116 1.70586 1.41569C1.81772 1.30994 1.96587 1.25088 2.12474 1.25088V1.25088Z" fill="#3156C8"/>
<path fill-rule="evenodd" clip-rule="evenodd" d="M5.39833 4.06397C5.07257 4.06368 4.80392 4.31653 4.80273 4.62478V4.62506C4.80273 4.93387 5.07138 5.18784 5.39773 5.18784H9.56333C9.88969 5.18784 10.1583 4.93387 10.1583 4.62506V4.62478C10.1574 4.31653 9.88879 4.06368 9.56273 4.06397H5.39833Z" fill="#3156C8"/>
<path fill-rule="evenodd" clip-rule="evenodd" d="M5.39833 7.4375C5.39833 7.4375 5.39803 7.4375 5.39773 7.4375C5.07138 7.4375 4.80273 7.69147 4.80273 8V8.00113C4.80273 8.30994 5.07138 8.56363 5.39773 8.56363H9.56333C9.88969 8.56363 10.1583 8.30994 10.1583 8.00113V8C10.1583 7.69147 9.88969 7.4375 9.56333 7.4375C9.56303 7.4375 9.56303 7.4375 9.56273 7.4375H5.39833Z" fill="#3156C8"/>
<path fill-rule="evenodd" clip-rule="evenodd" d="M5.39833 10.8135C5.39833 10.8135 5.39803 10.8135 5.39773 10.8135C5.07138 10.8135 4.80273 11.0674 4.80273 11.376V11.3765C4.80392 11.6848 5.07257 11.9376 5.39833 11.9374H9.56273C9.88879 11.9376 10.1574 11.6848 10.1583 11.3765C10.1583 11.3765 10.1583 11.3763 10.1583 11.376C10.1583 11.0674 9.88969 10.8135 9.56333 10.8135C9.56303 10.8135 9.56303 10.8135 9.56273 10.8135H5.39833Z" fill="#3156C8"/>
</svg>
