<svg width="16" height="18" viewBox="0 0 16 18" fill="none" xmlns="http://www.w3.org/2000/svg">
<g clip-path="url(#clip0_161_317)">
<path d="M10.5984 0.103958C10.5159 0.0170289 10.4027 -0.0351562 10.2854 -0.0351562H3.26366C1.96796 -0.0351562 0.898438 1.03011 0.898438 2.32567V15.6039C0.898438 16.8996 1.96796 17.9649 3.26366 17.9649H12.794C14.0897 17.9649 15.1593 16.8996 15.1593 15.6039V5.06045C15.1593 4.94743 15.1071 4.8388 15.0332 4.75613L10.5984 0.103958ZM10.7245 1.49964L13.6941 4.61701H11.7637C11.1898 4.61701 10.7245 4.15614 10.7245 3.58224V1.49964ZM12.794 17.0953H3.26366C2.45067 17.0953 1.76801 16.4214 1.76801 15.6039V2.32567C1.76801 1.51268 2.44628 0.834413 3.26366 0.834413H9.85492V3.58224C9.85492 4.63871 10.7072 5.48658 11.7637 5.48658H14.2897V15.6039C14.2897 16.4214 13.6114 17.0953 12.794 17.0953Z" fill="white"/>
<path d="M7.71144 12.5345C7.79411 12.6214 7.90714 12.6736 8.02881 12.6736C8.15062 12.6736 8.26364 12.6214 8.34618 12.5345L10.8941 9.79973C11.0593 9.62573 11.0462 9.3475 10.8724 9.18669C10.6984 9.02148 10.4202 9.03439 10.2593 9.20839L8.4636 11.1344V6.38668C8.4636 6.14746 8.2679 5.9519 8.02881 5.9519C7.78972 5.9519 7.59403 6.14746 7.59403 6.38668V11.1344L5.8027 9.20839C5.63749 9.03453 5.36352 9.02148 5.18966 9.18669C5.0158 9.3519 5.00276 9.62587 5.16797 9.79973L7.71144 12.5345Z" fill="white"/>
</g>
<defs>
<clipPath id="clip0_161_317">
<rect width="16" height="18" fill="white"/>
</clipPath>
</defs>
</svg>
