<svg width="1041" height="205" viewBox="0 0 1041 205" fill="none" xmlns="http://www.w3.org/2000/svg">
<circle cx="2" cy="2" r="2" transform="matrix(1 0 0 -1 69 103)" fill="#823C84"/>
<circle cx="2" cy="2" r="2" transform="matrix(1 0 0 -1 192 73)" fill="#823C84"/>
<circle cx="2" cy="2" r="2" transform="matrix(1 0 0 -1 295 73)" fill="#823C84"/>
<circle cx="2" cy="2" r="2" transform="matrix(1 0 0 -1 357 89)" fill="#823C84"/>
<circle cx="2" cy="2" r="2" transform="matrix(1 0 0 -1 426 89)" fill="#823C84"/>
<circle cx="2" cy="2" r="2" transform="matrix(1 0 0 -1 525 41)" fill="#823C84"/>
<circle cx="2" cy="2" r="2" transform="matrix(1 0 0 -1 574 121)" fill="#823C84"/>
<circle cx="2" cy="2" r="2" transform="matrix(1 0 0 -1 671 123)" fill="#823C84"/>
<circle cx="2" cy="2" r="2" transform="matrix(1 0 0 -1 759 91)" fill="#823C84"/>
<circle cx="848" cy="113" r="3" fill="#D93019"/>
<circle cx="456" cy="114" r="3" fill="#D93019"/>
<circle cx="302" cy="104" r="3" fill="#D93019"/>
<circle cx="505" cy="105" r="2" fill="#B9A35F"/>
<circle cx="442" cy="115" r="2" fill="#B9A35F"/>
<path d="M5 128.494H22.2329L27.0198 118.647L32.7641 128.494H46.1675L56.6988 53L65.3152 146L74.8891 128.494H83.5055L92.122 108.8L98.8237 128.494H121.801L128.503 118.647L135.204 128.494H145.735L158.181 53L163.926 146L173.5 128.494" stroke="black"/>
<path d="M173.499 128.494H190.731L195.518 118.647L201.263 128.494H214.666L225.197 53L233.814 146L243.388 128.494H252.004L260.621 108.8L267.322 128.494H290.299L297.001 118.647L303.703 128.494H314.234L326.68 53L332.424 146L341.998 128.494" stroke="black"/>
<path d="M679.004 128.494H696.237L701.024 118.647L706.768 128.494H720.171L730.703 53L739.319 146L748.893 128.494H757.509L766.126 108.8L772.828 128.494H795.805L802.506 118.647L809.208 128.494H819.739L832.185 53L837.93 146L847.504 128.494" stroke="black"/>
<path d="M847.502 128.494H864.735L869.522 118.647L875.267 128.494H888.67L899.201 53L907.818 146L917.391 128.494H926.008L934.624 108.8L941.326 128.494H964.303L971.005 118.647L977.707 128.494H988.238L1000.68 53L1006.43 146L1016 128.494" stroke="black"/>
<path d="M342 128.494H359.233L364.02 118.647L369.764 128.494H383.168L393.699 53L402.315 146L411.889 128.494H420.506L429.122 108.8L435.824 128.494H458.801L465.503 118.647L472.204 128.494H482.735L495.181 53L500.926 146L510.5 128.494" stroke="black"/>
<path d="M510.499 128.494H527.731L532.518 118.647L538.263 128.494H551.666L562.197 53L570.814 146L580.388 128.494H589.004L597.621 108.8L604.322 128.494H627.299L634.001 118.647L640.703 128.494H651.234L663.68 53L669.424 146L678.998 128.494" stroke="black"/>
<line y1="187.5" x2="1041" y2="187.5" stroke="black" stroke-opacity="0.1"/>
<line y1="71.5" x2="1041" y2="71.5" stroke="black" stroke-opacity="0.1"/>
<line y1="17.5" x2="1041" y2="17.5" stroke="black" stroke-opacity="0.1"/>
<line y1="129.5" x2="1041" y2="129.5" stroke="black" stroke-opacity="0.1"/>
<line y1="156.5" x2="1041" y2="156.5" stroke="black" stroke-opacity="0.1"/>
<line y1="40.5" x2="1041" y2="40.5" stroke="black" stroke-opacity="0.1"/>
<line y1="98.5" x2="1041" y2="98.5" stroke="black" stroke-opacity="0.1"/>
</svg>
