<svg width="1171" height="238" viewBox="0 0 1171 238" fill="none" xmlns="http://www.w3.org/2000/svg">
<g clip-path="url(#clip0_163_492)">
<ellipse cx="5" cy="5.5" rx="5" ry="5.5" transform="matrix(1 0 0 -1 342 73.5293)" fill="#823C84"/>
<ellipse cx="4.5" cy="4" rx="4.5" ry="4" transform="matrix(1 0 0 -1 481 101.529)" fill="#823C84"/>
<circle cx="4" cy="4" r="4" transform="matrix(1 0 0 -1 637 101.529)" fill="#823C84"/>
<ellipse cx="5" cy="3.5" rx="5" ry="3.5" transform="matrix(1 0 0 -1 859 6.5293)" fill="#823C84"/>
<ellipse cx="4.5" cy="4" rx="4.5" ry="4" transform="matrix(1 0 0 -1 970 164.529)" fill="#823C84"/>
<circle cx="4.5" cy="4.5" r="4.5" transform="matrix(1 0 0 -1 1170 109.529)" fill="#823C84"/>
<ellipse cx="703.5" cy="150.529" rx="6.5" ry="6" fill="#D93019"/>
<circle cx="358.5" cy="131.029" r="6.5" fill="#D93019"/>
<circle cx="814.5" cy="133.029" r="4.5" fill="#B9A35F"/>
<ellipse cx="672.5" cy="152.529" rx="4.5" ry="4" fill="#B9A35F"/>
<path d="M-310.352 178.257H-271.586L-260.818 159.048L-247.896 178.257H-217.746L-194.056 30.9824L-174.673 212.408L-153.137 178.257H-133.754L-114.372 139.838L-99.2963 178.257H-47.6093L-32.5339 159.048L-17.4585 178.257H6.23135L34.2285 30.9824L47.1502 212.408L68.6865 178.257" stroke="black"/>
<path d="M68.6857 178.257H107.451L118.219 159.048L131.141 178.257H161.292L184.981 30.9824L204.364 212.408L225.9 178.257H245.283L264.666 139.838L279.741 178.257H331.428L346.503 159.048L361.579 178.257H385.269L413.266 30.9824L426.187 212.408L447.724 178.257" stroke="black"/>
<path d="M447.727 178.257H486.492L497.26 159.048L510.182 178.257H540.332L564.022 30.9824L583.405 212.408L604.941 178.257H624.324L643.706 139.838L658.782 178.257H710.469L725.544 159.048L740.62 178.257H764.309L792.307 30.9824L805.228 212.408L826.765 178.257" stroke="black"/>
<path d="M826.764 178.257H865.529L876.297 159.048L889.219 178.257H919.37L943.06 30.9824L962.442 212.408L983.978 178.257H1003.36L1022.74 139.838L1037.82 178.257H1089.51L1104.58 159.048L1119.66 178.257H1143.35L1171.34 30.9824L1184.27 212.408L1205.8 178.257" stroke="black"/>
<line x1="-322" y1="69.0293" x2="2020" y2="69.0293" stroke="black" stroke-opacity="0.1"/>
<line x1="-322" y1="181.029" x2="2020" y2="181.029" stroke="black" stroke-opacity="0.1"/>
<line x1="-322" y1="6.0293" x2="2020" y2="6.0293" stroke="black" stroke-opacity="0.1"/>
<line x1="-322" y1="120.029" x2="2020" y2="120.029" stroke="black" stroke-opacity="0.1"/>
</g>
<defs>
<clipPath id="clip0_163_492">
<rect width="1171" height="238" fill="white"/>
</clipPath>
</defs>
</svg>
