<svg width="137" height="137" viewBox="0 0 137 137" fill="none" xmlns="http://www.w3.org/2000/svg">
<g clip-path="url(#clip0_164_493)">
<g filter="url(#filter0_d_164_493)">
<path d="M54.5096 36.5C60.2831 26.5 74.7169 26.5 80.4904 36.5L103.44 76.25C109.214 86.25 101.997 98.75 90.4497 98.75H44.5503C33.0033 98.75 25.7864 86.25 31.5599 76.25L54.5096 36.5Z" fill="white"/>
<path d="M54.9427 36.75C60.5238 27.0833 74.4764 27.0833 80.0575 36.75L103.007 76.5C108.588 86.1667 101.612 98.25 90.4498 98.25H44.5504C33.3883 98.25 26.412 86.1667 31.9931 76.5L54.9427 36.75Z" stroke="black"/>
</g>
<path d="M61.4704 31.5049C67.0636 21.9022 80.9364 21.9022 86.5296 31.5049L109.797 71.452C115.428 81.1186 108.454 93.25 97.2676 93.25H50.7324C39.5457 93.25 32.5725 81.1186 38.2028 71.452L61.4704 31.5049Z" fill="white" stroke="black"/>
<path d="M90.5 62C90.5 71.1269 83.3226 78.5 74.5 78.5C65.6774 78.5 58.5 71.1269 58.5 62C58.5 52.8731 65.6774 45.5 74.5 45.5C83.3226 45.5 90.5 52.8731 90.5 62Z" fill="white" stroke="black"/>
<path d="M69.5 121C98.4949 121 122 97.4949 122 68.5C122 39.5051 98.4949 16 69.5 16C40.5051 16 17 39.5051 17 68.5C17 97.4949 40.5051 121 69.5 121Z" stroke="url(#paint0_linear_164_493)" stroke-width="10"/>
<path d="M68.5 135.5C105.503 135.5 135.5 105.503 135.5 68.5C135.5 31.4969 105.503 1.5 68.5 1.5C31.4969 1.5 1.5 31.4969 1.5 68.5C1.5 105.503 31.4969 135.5 68.5 135.5Z" stroke="black" stroke-opacity="0.1" stroke-width="3" stroke-dasharray="2 10"/>
</g>
<defs>
<filter id="filter0_d_164_493" x="19.528" y="19" width="115.944" height="109.75" filterUnits="userSpaceOnUse" color-interpolation-filters="sRGB">
<feFlood flood-opacity="0" result="BackgroundImageFix"/>
<feColorMatrix in="SourceAlpha" type="matrix" values="0 0 0 0 0 0 0 0 0 0 0 0 0 0 0 0 0 0 127 0" result="hardAlpha"/>
<feOffset dx="10" dy="10"/>
<feGaussianBlur stdDeviation="10"/>
<feComposite in2="hardAlpha" operator="out"/>
<feColorMatrix type="matrix" values="0 0 0 0 0 0 0 0 0 0 0 0 0 0 0 0 0 0 0.09 0"/>
<feBlend mode="normal" in2="BackgroundImageFix" result="effect1_dropShadow_164_493"/>
<feBlend mode="normal" in="SourceGraphic" in2="effect1_dropShadow_164_493" result="shape"/>
</filter>
<linearGradient id="paint0_linear_164_493" x1="69.5" y1="11" x2="69.5" y2="126" gradientUnits="userSpaceOnUse">
<stop stop-color="#27DEBF"/>
<stop offset="1" stop-color="#BFFFBE" stop-opacity="0.19"/>
</linearGradient>
<clipPath id="clip0_164_493">
<rect width="137" height="137" fill="white"/>
</clipPath>
</defs>
</svg>
